<svg xmlns="http://www.w3.org/2000/svg" version="1.1" viewBox="0 0 1024 1024" height="1024px" width="1024px">
    <title>暂无发票</title>
    <defs>
        <linearGradient id="linearGradient-1" y2="63.0775943%" x2="50%" y1="0%" x1="50%">
            <stop offset="0%" stop-opacity="0.397332038" stop-color="#FF9500"></stop>
            <stop offset="64.9556999%" stop-opacity="0.0661697921" stop-color="#FF9200"></stop>
            <stop offset="100%" stop-opacity="0" stop-color="#FF9000"></stop>
        </linearGradient>
        <linearGradient id="linearGradient-2" y2="100%" x2="50%" y1="0%" x1="50%">
            <stop offset="0%" stop-color="#FFC065"></stop>
            <stop offset="100%" stop-color="#FF8C35"></stop>
        </linearGradient>
    </defs>
    <g fill-rule="evenodd" fill="none" stroke-width="1" stroke="none" id="暂无发票">
        <!--        <rect height="1024" width="1024" y="0" x="0" fill="#FFFFFF"></rect>-->
        <g id="编组-2">
            <rect height="1024" width="1024" y="0" x="0" id="矩形"></rect>
            <ellipse ry="150" rx="350" cy="735" cx="512" opacity="0.5" fill="url(#linearGradient-1)"
                     id="椭圆形"></ellipse>
            <g transform="translate(677.988476, 421.007570)" id="编组">
                <path transform="translate(66.372939, 117.459729) rotate(16.000000) translate(-66.372939, -117.459729)"
                      fill="#FFDBAD" id="椭圆形"
                      d="M73.4952866,229.027314 C89.2166164,229.024219 102.01735,182.585394 103.319332,114.779642 C104.621315,46.9738896 94.229671,5.88905003 78.5083411,5.89214517 C62.7870113,5.89524031 29.3291663,54.5658508 29.316698,117.836177 C29.3042379,181.106503 57.7739568,229.030409 73.4952866,229.027314 Z"></path>
                <path opacity="0.8" stroke-width="2" stroke="#FFFFFF" id="路径-42"
                      d="M95.3072235,43.8448836 C72.1141531,81.7983445 57.1956347,112.268957 50.5516683,135.256722 C43.9077019,158.244486 41.2128741,188.715099 42.467185,226.66856"></path>
                <path transform="translate(95.301334, 181.382625) scale(-1, 1) rotate(-34.000000) translate(-95.301334, -181.382625)"
                      fill="#FFB76A" id="椭圆形"
                      d="M113.779255,248.470848 C124.549025,248.474558 123.686282,220.47556 117.755433,174.584664 C111.824584,128.693769 101.246415,114.298113 90.476645,114.294402 C79.7068752,114.290692 64.7072419,145.375678 69.4027966,184.58494 C74.0983513,223.794201 103.009485,248.467137 113.779255,248.470848 Z"></path>
                <path opacity="0.8" stroke-width="2" stroke="#FFFFFF" id="路径-43"
                      d="M118.883233,157.951387 C108.731785,173.572968 97.5215836,187.709379 85.2526274,200.360621 C72.9836712,213.011863 59.8656745,221.781176 45.8986375,226.66856"></path>
            </g>
            <g transform="translate(289.010901, 649.458282) scale(-1, 1) translate(-289.010901, -649.458282) translate(253.866924, 592.101433)"
               id="编组备份">
                <path transform="translate(30.113387, 53.514046) rotate(16.000000) translate(-30.113387, -53.514046)"
                      fill="#FFDBAD" id="椭圆形"
                      d="M33.4806512,104.384544 C40.58626,104.40285 46.3135652,83.2433038 46.8169343,52.3262361 C47.3203035,21.4091684 42.5720052,2.66187784 35.4663964,2.64354868 C28.3607877,2.62524223 13.2998317,24.7765356 13.373328,53.6271156 C13.4473642,82.4776956 26.3750424,104.366214 33.4806512,104.384544 Z"></path>
                <path opacity="0.8" stroke="#FFFFFF" id="路径-42"
                      d="M43.1916461,19.9106 C32.7173563,37.2306318 25.9799608,51.1358717 22.9794599,61.6263198 C19.9789589,72.1167679 18.7619399,86.0220078 19.3284029,103.34204"></path>
                <path transform="translate(43.226463, 82.683023) scale(-1, 1) rotate(-34.000000) translate(-43.226463, -82.683023)"
                      fill="#FFB76A" id="椭圆形"
                      d="M51.4864769,113.173782 C56.3661861,113.15179 56.0367603,100.417831 53.4502918,79.5565452 C50.8638234,58.6952596 46.1025279,52.1703603 41.2228188,52.1922646 C36.3431096,52.2142794 29.4786131,66.3867855 31.5200482,84.2115208 C33.5614833,102.036256 46.6067678,113.195709 51.4864769,113.173782 Z"></path>
                <path opacity="0.8" stroke="#FFFFFF" id="路径-43"
                      d="M53.8388761,71.9830122 C49.2543515,79.1119083 44.1916797,85.5630484 38.6508608,91.3364325 C33.1100418,97.1098166 27.1857853,101.111686 20.8780911,103.34204"></path>
            </g>
            <g fill-rule="nonzero" transform="translate(336.000000, 336.000000)" id="我的订单2">
                <rect height="352" width="352" y="0" x="0" opacity="0" fill="#000000" id="矩形"></rect>
                <path fill="url(#linearGradient-2)" id="形状"
                      d="M272.81408,42.064 L80.14336,42.064 C65.03552,42.064 52.75072,54.64448 52.75072,70.09728 L52.75072,314.77248 C52.75072,318.99648 56.09472,322.41792 60.22016,322.41792 C60.64256,322.41792 61.04384,322.37568 61.44512,322.30528 C61.86752,322.38272 62.28992,322.41792 62.71232,322.41792 C64.33152,322.41792 65.95776,321.88288 67.33056,320.7776 L104.77632,295.98272 L135.53408,320.7776 C138.24448,322.96 142.0672,322.96 144.7776,320.7776 L176.68992,295.05344 L207.62368,319.98912 C210.33408,322.17152 214.1568,322.17152 216.8672,319.98912 L247.60384,295.21536 L285.6128,320.4608 C287.07712,321.64352 288.83712,322.16448 290.56192,322.08704 C291.2448,322.29824 291.96992,322.41792 292.7232,322.41792 C296.84864,322.41792 300.192652,318.99648 300.192652,314.77248 L300.192652,70.10432 C300.20672,54.64448 287.91488,42.064 272.81408,42.064 Z"></path>
            </g>
            <path fill-rule="nonzero" fill="#FFFFFF" id="路径"
                  d="M531.712165,566.615707 L441.997845,566.615707 C436.855787,566.615707 431.714997,560.111156 431.714997,554.774592 C431.714997,549.478893 436.066042,544.923205 441.216969,544.923205 L530.520735,544.923205 C535.652339,544.923205 540.003384,549.06834 540.413621,554.774592 C540.413621,560.111156 536.842184,566.615707 531.712165,566.615707 Z"></path>
            <path fill-rule="nonzero" fill="#FFFFFF" id="路径"
                  d="M552.265905,508.781496 L442.572177,508.781496 C437.419982,508.781496 434.146324,503.055603 434.146324,497.738997 C434.146324,492.413204 438.497369,487.087728 443.639426,487.087728 L552.942876,487.087728 C558.09412,487.087728 562.445165,492.023558 562.834811,497.738997 C562.834811,503.055603 557.416516,508.781496 552.265905,508.781496 Z"></path>
            <path fill-rule="nonzero" fill="#FFFFFF" id="路径"
                  d="M582.265905,449.365894 L442.572177,449.365894 C437.419982,449.365894 434.146324,443.659641 434.146324,438.323395 C434.146324,433.008372 438.497369,427.682579 443.639426,427.682579 L582.942876,427.682579 C588.09412,427.682579 592.445165,432.618727 592.834811,438.323395 C592.834811,443.659642 587.416516,449.365894 582.265905,449.365894 Z"></path>
        </g>
    </g>
</svg>