<svg xmlns:xlink="http://www.w3.org/1999/xlink" xmlns="http://www.w3.org/2000/svg" version="1.1" viewBox="0 0 1024 1024"
     height="1024px" width="1024px">
    <title>暂无数据 2</title>
    <defs>
        <radialGradient id="radialGradient-1"
                        gradientTransform="translate(0.500000,0.024678),scale(0.663291,1.000000),rotate(91.510151),translate(-0.500000,-0.024678)"
                        r="70.7270259%" fy="2.46780057%" fx="50.0000026%" cy="2.46780057%" cx="50.0000026%">
            <stop offset="0%" stop-opacity="0.15156181" stop-color="#0052D9"></stop>
            <stop offset="100%" stop-opacity="0" stop-color="#0052D9"></stop>
        </radialGradient>
        <linearGradient id="linearGradient-2" y2="100%" x2="50%" y1="0%" x1="50%">
            <stop offset="0%" stop-color="#72A0E8"></stop>
            <stop offset="99.39955%" stop-color="#3981F7"></stop>
        </linearGradient>
        <linearGradient id="linearGradient-3" y2="100%" x2="50%" y1="0%" x1="50%">
            <stop offset="1.27618965%" stop-color="#B7D2FF"></stop>
            <stop offset="100%" stop-color="#93BBFF"></stop>
        </linearGradient>
        <linearGradient id="linearGradient-4" y2="100%" x2="50%" y1="0%" x1="50%">
            <stop offset="0%" stop-color="#72A0E8"></stop>
            <stop offset="99.39955%" stop-color="#3981F7"></stop>
        </linearGradient>
        <linearGradient id="linearGradient-5" y2="100%" x2="50%" y1="0%" x1="50%">
            <stop offset="1.27618965%" stop-color="#B7D2FF"></stop>
            <stop offset="100%" stop-color="#93BBFF"></stop>
        </linearGradient>
        <linearGradient id="linearGradient-6" y2="100%" x2="50%" y1="0%" x1="50%">
            <stop offset="0%" stop-color="#72A0E8"></stop>
            <stop offset="99.39955%" stop-color="#3981F7"></stop>
        </linearGradient>
        <linearGradient id="linearGradient-7" y2="100%" x2="50%" y1="0%" x1="50%">
            <stop offset="1.27618965%" stop-color="#B7D2FF"></stop>
            <stop offset="100%" stop-color="#93BBFF"></stop>
        </linearGradient>
        <radialGradient id="radialGradient-8" r="66.169447%" fy="50%" fx="24.042307%" cy="50%" cx="24.042307%">
            <stop offset="0%" stop-color="#F2F7FF"></stop>
            <stop offset="100%" stop-color="#99C0FF"></stop>
        </radialGradient>
        <linearGradient id="linearGradient-9" y2="0%" x2="0%" y1="100%" x1="0%">
            <stop offset="0%" stop-color="#7492FF"></stop>
            <stop offset="100%" stop-color="#496AE0"></stop>
        </linearGradient>
        <linearGradient id="linearGradient-10" y2="0%" x2="0%" y1="100%" x1="0%">
            <stop offset="0%" stop-color="#86A6DB"></stop>
            <stop offset="100%" stop-color="#6099F7"></stop>
        </linearGradient>
        <path id="path-11"
              d="M91.3529412,0 C69.9094118,0 59,17.1936 59,38.4 L59,48 L114,48 L114,44.8 C114,2.7904 91.3529412,0 91.3529412,0 Z"></path>
        <linearGradient id="linearGradient-12" y2="-9.3007569%" x2="18.8059789%" y1="61.340225%" x1="80.317181%">
            <stop offset="0%" stop-color="#5E9BFF"></stop>
            <stop offset="100%" stop-color="#E2EDFF"></stop>
        </linearGradient>
        <linearGradient id="linearGradient-13" y2="0%" x2="0%" y1="100%" x1="0%">
            <stop offset="0%" stop-color="#DFE6FF"></stop>
            <stop offset="100%" stop-color="#FAFBFF"></stop>
        </linearGradient>
        <linearGradient id="linearGradient-14" y2="-178.085266%" x2="30.6627425%" y1="100%" x1="30.6627425%">
            <stop offset="0%" stop-color="#5E9BFF"></stop>
            <stop offset="100%" stop-color="#E2EDFF"></stop>
        </linearGradient>
        <linearGradient id="linearGradient-15" y2="0%" x2="100%" y1="0%" x1="0%">
            <stop offset="0%" stop-color="#C6D2FF"></stop>
            <stop offset="100%" stop-color="#F1F4FF"></stop>
        </linearGradient>
    </defs>
    <g fill-rule="evenodd" fill="none" stroke-width="1" stroke="none" id="暂无数据">
        <g transform="translate(104.000000, 266.990000)" id="编组">
            <g transform="translate(0.000000, 191.000000)">
                <polygon
                        points="841.26 279 841.03 288.24 840.34 297.42 839.21 306.54 837.63 315.62 835.6 324.67 833.11 333.68 829.59 344.26 825.46 354.75 820.71 365.15 815.31 375.49 809.24 385.77 802.77 395.6 795.69 405.31 787.98 414.91 779.62 424.4 770.59 433.79 761.34 442.63 751.48 451.29 741 459.79 729.87 468.12 718.06 476.28 706.13 483.89 693.77 491.17 680.97 498.14 667.72 504.8 654 511.12 640.22 516.96 626.1 522.45 611.63 527.58 596.8 532.35 581.6 536.76 566.4 540.71 550.96 544.27 535.26 547.44 519.3 550.21 503.07 552.59 486.89 554.52 470.55 556.03 454.07 557.12 437.43 557.77 420.63 558 403.83 557.77 387.19 557.12 370.71 556.03 354.37 554.52 338.19 552.59 321.96 550.21 306 547.44 290.3 544.27 274.86 540.71 259.66 536.76 244.46 532.35 229.63 527.58 215.16 522.45 201.04 516.96 187.26 511.12 173.54 504.8 160.29 498.14 147.49 491.17 135.13 483.89 123.2 476.28 111.39 468.12 100.26 459.79 89.78 451.29 79.92 442.63 70.67 433.79 61.64 424.4 53.28 414.91 45.57 405.31 38.49 395.6 32.02 385.77 25.95 375.49 20.55 365.15 15.8 354.75 11.67 344.26 8.15 333.68 5.66 324.67 3.63 315.62 2.05 306.54 0.92 297.42 0.23 288.24 0 279 0.23 269.76 0.92 260.58 2.05 251.46 3.63 242.38 5.66 233.33 8.15 224.32 11.67 213.74 15.8 203.25 20.55 192.85 25.95 182.51 32.02 172.23 38.49 162.4 45.57 152.69 53.28 143.09 61.64 133.6 70.67 124.21 79.92 115.37 89.78 106.71 100.26 98.21 111.39 89.88 123.2 81.72 135.13 74.11 147.49 66.83 160.29 59.86 173.54 53.2 187.26 46.88 201.04 41.04 215.16 35.55 229.63 30.42 244.46 25.65 259.66 21.24 274.86 17.29 290.3 13.73 306 10.56 321.96 7.79 338.19 5.41 354.37 3.48 370.71 1.97 387.19 0.88 403.83 0.23 420.63 0 437.43 0.23 454.07 0.88 470.55 1.97 486.89 3.48 503.07 5.41 519.3 7.79 535.26 10.56 550.96 13.73 566.4 17.29 581.6 21.24 596.8 25.65 611.63 30.42 626.1 35.55 640.22 41.04 654 46.88 667.72 53.2 680.97 59.86 693.77 66.83 706.13 74.11 718.06 81.72 729.87 89.88 741 98.21 751.48 106.71 761.34 115.37 770.59 124.21 779.62 133.6 787.98 143.09 795.69 152.69 802.77 162.4 809.24 172.23 815.31 182.51 820.71 192.85 825.46 203.25 829.59 213.74 833.11 224.32 835.6 233.33 837.63 242.38 839.21 251.46 840.34 260.58 841.03 269.76"
                        fill-rule="nonzero" fill="url(#radialGradient-1)" id="椭圆形"></polygon>
                <g id="路径" transform="translate(117.630000, 67.000000)">
                    <polygon
                            points="20.77 30 31.15 30 31.15 84.67 30.95 86.12 30.45 87.36 29.63 88.44 28.58 89.28 27.37 89.8 25.96 90 25.96 90 24.55 89.8 23.35 89.28 22.29 88.44 21.48 87.36 20.97 86.12 20.77 84.67"
                            fill-rule="nonzero" fill="#3F78D6"></polygon>
                    <polygon points="20.77 0 45 63.33 20.77 80" fill="url(#linearGradient-2)"></polygon>
                    <polygon points="20.77 0 0 70 20.77 80" fill="url(#linearGradient-3)"></polygon>
                </g>
                <g id="路径" transform="translate(699.630000, 32.000000)">
                    <polygon
                            points="16 23 24 23 24 65.82 23.68 67.46 22.83 68.78 21.56 69.67 20 70 20 70 18.44 69.67 17.17 68.78 16.32 67.46 16 65.82"
                            fill-rule="nonzero" fill="#3F78D6"></polygon>
                    <polygon points="16 0 35 49.08 16 62" fill="url(#linearGradient-4)"></polygon>
                    <polygon points="16 0 0 54.25 16 62" fill="url(#linearGradient-5)"></polygon>
                </g>
                <g id="路径" transform="translate(173.630000, 0.000000)">
                    <polygon
                            points="16 23 24 23 24 64 23.68 65.57 22.83 66.83 21.57 67.68 20 68 20 68 18.43 67.68 17.17 66.83 16.32 65.57 16 64"
                            fill-rule="nonzero" fill="#3F78D6"></polygon>
                    <polygon points="16 0 34 47.5 16 60" fill="url(#linearGradient-6)"></polygon>
                    <polygon points="16 0 0 52.5 16 60" fill="url(#linearGradient-7)"></polygon>
                </g>
            </g>
            <polygon
                    points="654.63 35.5 654.29 40.38 653.36 44.97 651.84 49.32 649.77 53.44 647.24 57.19 644.23 60.6 640.82 63.61 637.07 66.14 632.95 68.21 628.6 69.73 624.01 70.66 619.13 71 614.25 70.66 609.66 69.73 605.31 68.21 601.19 66.14 597.44 63.61 594.03 60.6 591.02 57.19 588.49 53.44 586.42 49.32 584.9 44.97 583.97 40.38 583.63 35.5 583.97 30.62 584.9 26.03 586.42 21.68 588.49 17.56 591.02 13.81 594.03 10.4 597.44 7.39 601.19 4.86 605.31 2.79 609.66 1.27 614.25 0.34 619.13 0 624.01 0.34 628.6 1.27 632.95 2.79 637.07 4.86 640.82 7.39 644.23 10.4 647.24 13.81 649.77 17.56 651.84 21.68 653.36 26.03 654.29 30.62"
                    fill-rule="nonzero" fill="url(#radialGradient-8)" id="椭圆形"></polygon>
            <polygon
                    points="303.63 181.5 303.3 185.06 302.41 188.32 300.97 191.34 299.03 194.08 296.71 196.4 293.97 198.34 290.95 199.78 287.69 200.67 284.13 201 280.57 200.67 277.31 199.78 274.29 198.34 271.55 196.4 269.23 194.08 267.29 191.34 265.85 188.32 264.96 185.06 264.63 181.5 264.96 177.94 265.85 174.68 267.29 171.66 269.23 168.92 271.55 166.6 274.29 164.66 277.31 163.22 280.57 162.33 284.13 162 287.69 162.33 290.95 163.22 293.97 164.66 296.71 166.6 299.03 168.92 300.97 171.66 302.41 174.68 303.3 177.94"
                    fill-rule="nonzero" fill="url(#radialGradient-8)" fill-opacity="0.56253344"
                    id="椭圆形备份"></polygon>
        </g>
        <g transform="translate(344.000000, 267.000000)" id="编组">
            <path fill="#5577F0" id="路径"
                  d="M91.3529412,0 C69.9094118,0 59,17.1936 59,38.4 L59,48 L114,48 L114,44.8 C114,2.7904 91.3529412,0 91.3529412,0 Z"></path>
            <g fill-rule="nonzero" id="路径">
                <use xlink:href="#path-11" fill="url(#linearGradient-9)"></use>
                <use xlink:href="#path-11" fill="url(#linearGradient-10)"></use>
            </g>
            <path fill="#FFE2D7" id="路径"
                  d="M303,264 L303,39.2776831 C303,17.5856603 285.444589,0 263.788787,0 L78,0 C99.6558018,0 104.173403,17.5856603 104.173403,39.2776831 L104.173403,237.927857 C104.173403,237.927857 107.471969,264 138.436767,264 C193.586701,264 303,264 303,264 Z"></path>
            <path fill="url(#linearGradient-12)" id="路径"
                  d="M303,264 L303,39.2776831 C303,17.5856603 285.444589,0 263.788787,0 L78,0 C99.6558018,0 104.173403,17.5856603 104.173403,39.2776831 L104.173403,237.927857 C104.173403,237.927857 107.471969,264 138.436767,264 C193.586701,264 303,264 303,264 Z"></path>
            <path fill="#EEF2FE" id="形状"
                  d="M264.5,109.941176 L228.75,109.941176 C225.15875,109.941176 222.25,107.045588 222.25,103.470588 C222.25,99.8955882 225.15875,97 228.75,97 L264.5,97 C268.09125,97 271,99.8955882 271,103.470588 C271,107.045588 268.09125,109.941176 264.5,109.941176 Z M183.25,109.941176 L147.5,109.941176 C143.90875,109.941176 141,107.045588 141,103.470588 C141,99.8955882 143.90875,97 147.5,97 L183.25,97 C186.84125,97 189.75,99.8955882 189.75,103.470588 C189.75,107.045588 186.84125,109.941176 183.25,109.941176 Z M180,139.058824 L232,139.058824 C235.59125,139.058824 238.5,141.954412 238.5,145.529412 C238.5,149.104412 235.59125,152 232,152 L180,152 C176.40875,152 173.5,149.104412 173.5,145.529412 C173.5,141.954412 176.40875,139.058824 180,139.058824 Z"></path>
            <path fill-rule="nonzero" fill="url(#linearGradient-13)" id="形状"
                  d="M264.5,109.941176 L228.75,109.941176 C225.15875,109.941176 222.25,107.045588 222.25,103.470588 C222.25,99.8955882 225.15875,97 228.75,97 L264.5,97 C268.09125,97 271,99.8955882 271,103.470588 C271,107.045588 268.09125,109.941176 264.5,109.941176 Z M183.25,109.941176 L147.5,109.941176 C143.90875,109.941176 141,107.045588 141,103.470588 C141,99.8955882 143.90875,97 147.5,97 L183.25,97 C186.84125,97 189.75,99.8955882 189.75,103.470588 C189.75,107.045588 186.84125,109.941176 183.25,109.941176 Z M180,139.058824 L232,139.058824 C235.59125,139.058824 238.5,141.954412 238.5,145.529412 C238.5,149.104412 235.59125,152 232,152 L180,152 C176.40875,152 173.5,149.104412 173.5,145.529412 C173.5,141.954412 176.40875,139.058824 180,139.058824 Z"></path>
            <path fill="#5577F0" id="路径"
                  d="M152.217968,222 L336,222 C336,222 336,264 316.309068,264 C306.463602,264 99.7088158,264 132.527036,264 C152.217968,264 152.217968,222 152.217968,222 Z"></path>
            <path fill="url(#linearGradient-14)" id="路径"
                  d="M152.217968,222 L336,222 C336,222 336,264 316.309068,264 C306.463602,264 99.7088158,264 132.527036,264 C152.217968,264 152.217968,222 152.217968,222 Z"></path>
            <path fill="#FFFFFF" id="路径"
                  d="M58.1511347,48.8888889 L61.4217852,48.8888889 C61.4217852,48.8888889 59.9238273,3.25925926 84.3163389,3.25925926 C100.738275,3.25925926 103.940242,33.5605926 103.940242,42.3703704 C103.940242,51.1801481 103.940242,230.951111 103.940242,237.925926 C103.940242,244.900741 110.821691,264 130.105446,264 C149.389202,264 153,238.079111 153,221.62963 L149.729349,218.37037 C149.729349,218.37037 149.251834,260.740741 130.105446,260.740741 C110.959058,260.740741 107.210893,241.33837 107.210893,231.407407 C107.210893,221.476444 107.210893,50.7108148 107.210893,42.3703704 C107.210893,34.0299259 106.262404,0 84.3163389,0 C54.3964279,0 58.1511347,48.8888889 58.1511347,48.8888889 Z"></path>
            <polygon points="150 219 331.754386 219 335 222 153.245614 222" fill="#FFFFFF" id="路径"></polygon>
            <polygon points="150 219 331.754386 219 335 222 153.245614 222" fill-rule="nonzero"
                     fill="url(#linearGradient-15)" id="路径"></polygon>
            <polyline points="0 45 23.6375421 45 2.36569862 71 26 71" stroke-linecap="round" stroke-width="8"
                      stroke="#5E9BFF" id="路径"></polyline>
            <polyline points="43 79 60.2701398 79 44.7266977 95 62 95" stroke-linecap="round" stroke-width="8"
                      stroke="#5E9BFF" id="路径"></polyline>
        </g>
    </g>
</svg>