<svg xmlns="http://www.w3.org/2000/svg" version="1.1" viewBox="0 0 1024 1024" height="1024px" width="1024px">
    <title>暂无收藏</title>
    <defs>
        <linearGradient id="linearGradient-1" y2="63.0775943%" x2="50%" y1="0%" x1="50%">
            <stop offset="0%" stop-opacity="0.397332038" stop-color="#FF9500"></stop>
            <stop offset="64.9556999%" stop-opacity="0.0661697921" stop-color="#FF9200"></stop>
            <stop offset="100%" stop-opacity="0" stop-color="#FF9000"></stop>
        </linearGradient>
        <linearGradient id="linearGradient-2" y2="100%" x2="50%" y1="0%" x1="50%">
            <stop offset="0%" stop-color="#FFC065"></stop>
            <stop offset="100%" stop-color="#FF8C35"></stop>
        </linearGradient>
        <linearGradient id="linearGradient-3" y2="100%" x2="50%" y1="0%" x1="50%">
            <stop offset="0%" stop-color="#FFEFD8"></stop>
            <stop offset="100%" stop-color="#FFA34A"></stop>
        </linearGradient>
    </defs>
    <g fill-rule="evenodd" fill="none" stroke-width="1" stroke="none" id="暂无收藏">
        <!--        <rect height="1024" width="1024" y="0" x="0" fill="#FFFFFF"></rect>-->
        <ellipse ry="150" rx="350" cy="735" cx="512" opacity="0.5" fill="url(#linearGradient-1)" id="椭圆形"></ellipse>
        <g transform="translate(677.988476, 421.007570)" id="编组">
            <path transform="translate(66.372939, 117.459729) rotate(16.000000) translate(-66.372939, -117.459729)"
                  fill="#FFDBAD" id="椭圆形"
                  d="M73.4952866,229.027314 C89.2166164,229.024219 102.01735,182.585394 103.319332,114.779642 C104.621315,46.9738896 94.229671,5.88905003 78.5083411,5.89214517 C62.7870113,5.89524031 29.3291663,54.5658508 29.316698,117.836177 C29.3042379,181.106503 57.7739568,229.030409 73.4952866,229.027314 Z"></path>
            <path opacity="0.8" stroke-width="2" stroke="#FFFFFF" id="路径-42"
                  d="M95.3072235,43.8448836 C72.1141531,81.7983445 57.1956347,112.268957 50.5516683,135.256722 C43.9077019,158.244486 41.2128741,188.715099 42.467185,226.66856"></path>
            <path transform="translate(95.301334, 181.382625) scale(-1, 1) rotate(-34.000000) translate(-95.301334, -181.382625)"
                  fill="#FFB76A" id="椭圆形"
                  d="M113.779255,248.470848 C124.549025,248.474558 123.686282,220.47556 117.755433,174.584664 C111.824584,128.693769 101.246415,114.298113 90.476645,114.294402 C79.7068752,114.290692 64.7072419,145.375678 69.4027966,184.58494 C74.0983513,223.794201 103.009485,248.467137 113.779255,248.470848 Z"></path>
            <path opacity="0.8" stroke-width="2" stroke="#FFFFFF" id="路径-43"
                  d="M118.883233,157.951387 C108.731785,173.572968 97.5215836,187.709379 85.2526274,200.360621 C72.9836712,213.011863 59.8656745,221.781176 45.8986375,226.66856"></path>
        </g>
        <g transform="translate(289.010901, 649.458282) scale(-1, 1) translate(-289.010901, -649.458282) translate(253.866924, 592.101433)"
           id="编组备份">
            <path transform="translate(30.113387, 53.514046) rotate(16.000000) translate(-30.113387, -53.514046)"
                  fill="#FFDBAD" id="椭圆形"
                  d="M33.4806512,104.384544 C40.58626,104.40285 46.3135652,83.2433038 46.8169343,52.3262361 C47.3203035,21.4091684 42.5720052,2.66187784 35.4663964,2.64354868 C28.3607877,2.62524223 13.2998317,24.7765356 13.373328,53.6271156 C13.4473642,82.4776956 26.3750424,104.366214 33.4806512,104.384544 Z"></path>
            <path opacity="0.8" stroke="#FFFFFF" id="路径-42"
                  d="M43.1916461,19.9106 C32.7173563,37.2306318 25.9799608,51.1358717 22.9794599,61.6263198 C19.9789589,72.1167679 18.7619399,86.0220078 19.3284029,103.34204"></path>
            <path transform="translate(43.226463, 82.683023) scale(-1, 1) rotate(-34.000000) translate(-43.226463, -82.683023)"
                  fill="#FFB76A" id="椭圆形"
                  d="M51.4864769,113.173782 C56.3661861,113.15179 56.0367603,100.417831 53.4502918,79.5565452 C50.8638234,58.6952596 46.1025279,52.1703603 41.2228188,52.1922646 C36.3431096,52.2142794 29.4786131,66.3867855 31.5200482,84.2115208 C33.5614833,102.036256 46.6067678,113.195709 51.4864769,113.173782 Z"></path>
            <path opacity="0.8" stroke="#FFFFFF" id="路径-43"
                  d="M53.8388761,71.9830122 C49.2543515,79.1119083 44.1916797,85.5630484 38.6508608,91.3364325 C33.1100418,97.1098166 27.1857853,101.111686 20.8780911,103.34204"></path>
        </g>
        <g transform="translate(498.106333, 512.047105) rotate(-11.000000) translate(-498.106333, -512.047105) translate(351.547475, 372.775230)"
           id="编组-2">
            <path fill-rule="nonzero" fill="url(#linearGradient-2)" id="路径"
                  d="M146.562525,0 C157.716263,-0.108163406 167.947605,6.17883908 172.889191,16.1787704 L195.453858,61.3667704 C199.770402,69.9660159 208.02976,75.9015727 217.556525,77.2507704 L268.002525,84.4961036 C279.008169,85.9654427 288.203323,93.6009928 291.669938,104.149251 C295.136553,114.697508 292.26358,126.299168 284.275191,134.01077 L247.777191,169.21077 C240.877504,175.835006 237.712739,185.450175 239.329191,194.877437 L247.945858,244.53877 C249.364286,253.0284 246.964072,261.71131 241.386649,268.267079 C235.809226,274.822848 227.623073,278.58328 219.015858,278.543751 C214.249129,278.529917 209.556548,277.362433 205.339191,275.14077 L160.224525,251.674104 C151.657083,247.225736 141.460633,247.225736 132.893191,251.674104 L87.7785246,275.14077 C77.9501898,280.341587 66.0244235,279.52843 56.993005,273.041664 C47.9615864,266.554898 43.3822828,255.513381 45.1718578,244.53877 L53.7885246,194.877437 C55.4068272,185.451424 52.2448772,175.836459 45.3478578,169.21077 L8.84252457,134.01077 C0.854135823,126.299168 -2.01883714,114.697508 1.44777779,104.149251 C4.91439272,93.6009928 14.1095472,85.9654427 25.1151913,84.4961036 L75.5611913,77.2507704 C85.0906757,75.9038294 93.3532141,69.967956 97.6711913,61.3667704 L120.228525,16.1787704 C125.172623,6.17767804 135.406642,-0.109218285 146.562525,0 Z"></path>
            <path stroke-linejoin="round" stroke-linecap="round" stroke-width="16" stroke="#FFFFFF" id="路径-2"
                  d="M133.514392,83.6881224 C127.222344,100.383678 121.077201,111.313151 115.078961,116.476542 C109.080722,121.639932 97.9666642,125.567484 81.7367886,128.259198"></path>
        </g>
        <path transform="translate(615.500000, 597.000000) rotate(16.000000) translate(-615.500000, -597.000000)"
              fill-rule="nonzero" fill="url(#linearGradient-3)" id="路径"
              d="M615.501614,536 C620.410332,535.952625 624.913107,538.706284 627.08788,543.086176 L637.018505,562.878169 C638.9182,566.644572 642.553112,569.244299 646.745805,569.835238 L668.946899,573.008637 C673.790442,573.652196 677.837194,576.996508 679.362838,581.616563 C680.888483,586.236618 679.624098,591.318055 676.108438,594.695677 L660.045806,610.113004 C657.00928,613.014367 655.616479,617.225737 656.327873,621.354804 L660.120036,643.106083 C660.744281,646.824475 659.687955,650.627522 657.233353,653.498898 C654.77875,656.370273 651.176055,658.017314 647.388052,658 C645.290233,657.993941 643.225046,657.482592 641.369003,656.509521 L621.514208,646.231303 C617.743709,644.282953 613.256291,644.282953 609.485792,646.231303 L589.630997,656.509521 C585.305584,658.787438 580.057099,658.431282 576.082406,655.590129 C572.107713,652.748976 570.092379,647.912877 570.879964,643.106083 L574.672127,621.354804 C575.384335,617.226284 573.992773,613.015004 570.957421,610.113004 L554.891562,594.695677 C551.375902,591.318055 550.111517,586.236618 551.637162,581.616563 C553.162806,576.996508 557.209558,573.652196 562.053101,573.008637 L584.254195,569.835238 C588.448085,569.245288 592.084397,566.645421 593.984723,562.878169 L603.91212,543.086176 C606.087999,538.705775 610.591952,535.952163 615.501614,536 Z"></path>
    </g>
</svg>