<?xml version="1.0" standalone="no"?><!DOCTYPE svg PUBLIC "-//W3C//DTD SVG 1.1//EN"
        "http://www.w3.org/Graphics/SVG/1.1/DTD/svg11.dtd">
<svg height="1024" node-id="1" sillyvg="true" template-height="1024" template-width="1024" version="1.1"
     viewBox="0 0 1024 1024" width="1024" xmlns="http://www.w3.org/2000/svg">
    <defs node-id="97">
        <radialGradient cx="0.5" cy="0.024677966" fx="0.5" fy="0.024677966"
                        gradientTransform="matrix(-0.0174804 0.99965267 -0.66305562 -0.02635425 0.52510309 -0.47449796)"
                        gradientUnits="objectBoundingBox" id="radialGradient-1" node-id="5" r="0.70727026"
                        spreadMethod="pad">
            <stop offset="0" stop-color="#0052d9" stop-opacity="0.15156181"></stop>
            <stop offset="1" stop-color="#0052d9" stop-opacity="0"></stop>
        </radialGradient>
        <linearGradient gradientUnits="objectBoundingBox" id="linearGradient-2" node-id="8" spreadMethod="pad" x1="1"
                        x2="0" y1="0.5" y2="0.5">
            <stop offset="0" stop-color="#5791ef"></stop>
            <stop offset="1" stop-color="#3f78d6"></stop>
        </linearGradient>
        <linearGradient gradientUnits="objectBoundingBox" id="linearGradient-3" node-id="11" spreadMethod="pad"
                        x1="0.43394515" x2="0.93493307" y1="0.046893403" y2="0.3545447">
            <stop offset="0" stop-color="#6f9ee9"></stop>
            <stop offset="0.9937121" stop-color="#c5dbff"></stop>
        </linearGradient>
        <linearGradient gradientUnits="objectBoundingBox" id="linearGradient-4" node-id="14" spreadMethod="pad" x1="0.5"
                        x2="0.5" y1="0" y2="1">
            <stop offset="0" stop-color="#578de6"></stop>
            <stop offset="0.996891" stop-color="#91bbff"></stop>
        </linearGradient>
        <linearGradient gradientUnits="objectBoundingBox" id="linearGradient-5" node-id="17" spreadMethod="pad"
                        x1="0.038178798" x2="0.4430021" y1="0.22792792" y2="0.99752754">
            <stop offset="0" stop-color="#72a6fb"></stop>
            <stop offset="1" stop-color="#a3c6ff"></stop>
        </linearGradient>
        <linearGradient gradientUnits="objectBoundingBox" id="linearGradient-6" node-id="20" spreadMethod="pad"
                        x1="0.7068972" x2="0.29023197" y1="0.89354116" y2="0.11124998">
            <stop offset="0" stop-color="#82b1ff"></stop>
            <stop offset="1" stop-color="#eef5ff"></stop>
        </linearGradient>
        <linearGradient gradientUnits="objectBoundingBox" id="linearGradient-7" node-id="23" spreadMethod="pad"
                        x1="0.15677986" x2="0.9106444" y1="0.05670979" y2="0.9342085">
            <stop offset="0" stop-color="#b0cdff"></stop>
            <stop offset="1" stop-color="#77aaff"></stop>
        </linearGradient>
        <linearGradient gradientUnits="objectBoundingBox" id="linearGradient-8" node-id="26" spreadMethod="pad"
                        x1="0.15677986" x2="0.9106444" y1="0.05670979" y2="0.9342085">
            <stop offset="0" stop-color="#a9caff"></stop>
            <stop offset="1" stop-color="#6da1fa"></stop>
        </linearGradient>
        <linearGradient gradientUnits="objectBoundingBox" id="linearGradient-9" node-id="29" spreadMethod="pad"
                        x1="0.9106444" x2="0.15677986" y1="0.9342085" y2="0.05670979">
            <stop offset="0" stop-color="#5c9afe"></stop>
            <stop offset="1" stop-color="#d8e7ff"></stop>
        </linearGradient>
        <linearGradient gradientUnits="objectBoundingBox" id="linearGradient-10" node-id="32" spreadMethod="pad"
                        x1="0.96595156" x2="0.13763991" y1="0.050921526" y2="0.8687215">
            <stop offset="0.017673733" stop-color="#6096ed"></stop>
            <stop offset="1" stop-color="#95beff"></stop>
        </linearGradient>
        <linearGradient gradientUnits="objectBoundingBox" id="linearGradient-11" node-id="35" spreadMethod="pad"
                        x1="0.5" x2="0.5" y1="0" y2="1">
            <stop offset="0" stop-color="#72a0e8"></stop>
            <stop offset="0.9939955" stop-color="#3981f7"></stop>
        </linearGradient>
        <linearGradient gradientUnits="objectBoundingBox" id="linearGradient-12" node-id="38" spreadMethod="pad"
                        x1="0.5" x2="0.5" y1="0" y2="1">
            <stop offset="0.0127618965" stop-color="#b7d2ff"></stop>
            <stop offset="1" stop-color="#93bbff"></stop>
        </linearGradient>
        <linearGradient gradientUnits="objectBoundingBox" id="linearGradient-13" node-id="41" spreadMethod="pad"
                        x1="0.5" x2="0.5" y1="0" y2="1">
            <stop offset="0" stop-color="#72a0e8"></stop>
            <stop offset="0.9939955" stop-color="#3981f7"></stop>
        </linearGradient>
        <linearGradient gradientUnits="objectBoundingBox" id="linearGradient-14" node-id="44" spreadMethod="pad"
                        x1="0.5" x2="0.5" y1="0" y2="1">
            <stop offset="0.0127618965" stop-color="#b7d2ff"></stop>
            <stop offset="1" stop-color="#93bbff"></stop>
        </linearGradient>
        <linearGradient gradientUnits="objectBoundingBox" id="linearGradient-15" node-id="47" spreadMethod="pad"
                        x1="0.5" x2="0.5" y1="0" y2="1">
            <stop offset="0" stop-color="#72a0e8"></stop>
            <stop offset="0.9939955" stop-color="#3981f7"></stop>
        </linearGradient>
        <linearGradient gradientUnits="objectBoundingBox" id="linearGradient-16" node-id="50" spreadMethod="pad"
                        x1="0.5" x2="0.5" y1="0" y2="1">
            <stop offset="0.0127618965" stop-color="#b7d2ff"></stop>
            <stop offset="1" stop-color="#93bbff"></stop>
        </linearGradient>
        <radialGradient cx="0.24042307" cy="0.5" fx="0.24042307" fy="0.5" gradientUnits="objectBoundingBox"
                        id="radialGradient-17" node-id="53" r="0.66169447" spreadMethod="pad">
            <stop offset="0" stop-color="#f2f7ff"></stop>
            <stop offset="1" stop-color="#99c0ff"></stop>
        </radialGradient>
    </defs>
    <path d="M 932.63 719.00 C 932.63 793.00 888.32 863.96 809.43 916.28 C 730.55 968.61 623.56 998.00 512.00 998.00 C 400.44 998.00 293.45 968.61 214.57 916.28 C 135.68 863.96 91.37 793.00 91.37 719.00 C 91.37 645.00 135.68 574.04 214.57 521.72 C 293.45 469.39 400.44 440.00 512.00 440.00 C 623.56 440.00 730.55 469.39 809.43 521.72 C 888.32 574.04 932.63 645.00 932.63 719.00 Z"
          fill="url(#radialGradient-1)" fill-rule="nonzero" id="椭圆形" node-id="57" stroke="none" target-height="558"
          target-width="841.26" target-x="91.37" target-y="440"></path>
    <g node-id="249">
        <path d="M 364.00 374.99 L 520.96 295.00 L 684.00 374.99 L 684.00 504.84 L 524.38 584.00 L 364.00 505.65 Z"
              fill="url(#linearGradient-2)" fill-rule="evenodd" group-id="1" id="路径" node-id="59" stroke="none"
              target-height="289" target-width="320" target-x="364" target-y="295"></path>
        <g node-id="254">
            <path d="M 424.34 405.46 L 391.52 391.19 L 391.52 358.70 Z" fill="#3468bb" fill-rule="evenodd"
                  group-id="1,6" node-id="207" stroke="none" target-height="46.75998" target-width="32.820007"
                  target-x="391.52" target-y="358.7"></path>
            <g node-id="258">
                <path d="M 612.40 408.40 L 645.23 394.13 L 640.05 353.31 Z" fill="#3b77d8" fill-rule="evenodd"
                      group-id="1,6,10" node-id="211" stroke="none" target-height="55.089996" target-width="32.829956"
                      target-x="612.4" target-y="353.31"></path>
            </g>
            <path d="M 468.98 435.93 L 569.88 502.03 L 571.53 502.78 L 573.21 503.00 L 574.88 502.73 L 576.40 502.00 L 577.66 500.87 L 578.58 499.32 L 634.29 361.44 L 634.83 359.44 L 634.91 357.50 L 634.54 355.56 L 633.76 353.76 L 632.60 352.19 L 631.03 350.84 L 544.68 292.85 L 543.15 292.11 L 541.57 291.85 L 539.98 292.02 L 538.50 292.60 L 537.22 293.57 L 536.21 294.93 L 466.05 424.37 L 465.24 426.47 L 464.99 428.60 L 465.26 430.72 L 466.03 432.71 L 467.27 434.47 L 468.98 435.93"
                  fill="#4f8df1" fill-rule="evenodd" group-id="1,6" node-id="214" stroke="none" target-height="211.15"
                  target-width="169.91998" target-x="464.99" target-y="291.85"></path>
            <path d="M 488.58 407.04 L 584.25 465.10 L 585.86 465.78 L 587.49 465.96 L 589.10 465.68 L 590.57 464.98 L 591.80 463.90 L 592.72 462.42 L 655.78 317.44 L 656.63 314.84 L 656.99 312.28 L 656.88 309.73 L 656.33 307.23 L 655.38 304.91 L 654.02 302.73 L 652.31 300.83 L 650.26 299.26 L 647.83 297.99 L 568.11 265.55 L 565.70 264.81 L 563.32 264.48 L 560.93 264.55 L 558.59 265.01 L 556.39 265.81 L 554.31 266.98 L 552.45 268.46 L 550.84 270.25 L 549.49 272.38 L 485.34 395.44 L 484.55 397.58 L 484.34 399.74 L 484.66 401.88 L 485.50 403.87 L 486.80 405.61 L 488.58 407.04"
                  fill="url(#linearGradient-3)" fill-rule="evenodd" group-id="1,6" node-id="216" stroke="none"
                  target-height="201.47998" target-width="172.65" target-x="484.34" target-y="264.48"></path>
            <path d="M 488.27 404.26 L 568.91 457.33 L 613.05 413.14 L 544.72 282.91 L 485.36 392.72 L 484.55 394.81 L 484.30 396.94 L 484.57 399.05 L 485.34 401.04 L 486.57 402.80 L 488.27 404.26"
                  fill="url(#linearGradient-4)" fill-opacity="0.45866323" fill-rule="evenodd" group-id="1,6,11"
                  node-id="220" stroke="none" target-height="174.41998" target-width="128.75" target-x="484.3"
                  target-y="282.91"></path>
            <path d="M 493.14 258.05 L 368.27 295.84 L 366.55 296.57 L 365.11 297.55 L 363.92 298.79 L 362.99 300.23 L 362.36 301.79 L 362.04 303.48 L 362.04 305.19 L 362.41 306.89 L 363.15 308.61 L 457.36 475.01 L 458.42 476.58 L 459.65 477.90 L 461.07 479.01 L 463.46 480.23 L 466.06 480.88 L 468.75 480.93 L 471.49 480.33 L 597.56 436.58 L 599.25 435.78 L 600.64 434.75 L 601.78 433.47 L 602.66 432.00 L 603.22 430.42 L 603.49 428.73 L 603.42 427.02 L 603.00 425.34 L 602.20 423.66 L 503.24 261.90 L 502.01 260.32 L 500.55 259.12 L 498.85 258.25 L 497.00 257.77 L 495.11 257.70 L 493.14 258.05"
                  fill="url(#linearGradient-5)" fill-rule="evenodd" group-id="1,6" node-id="223" stroke="none"
                  target-height="223.22998" target-width="241.44998" target-x="362.04" target-y="257.7"></path>
            <path d="M 496.19 251.45 L 371.60 292.58 L 369.92 293.34 L 368.52 294.33 L 367.36 295.58 L 366.46 297.02 L 365.87 298.56 L 365.57 300.24 L 365.59 301.93 L 365.95 303.60 L 366.69 305.29 L 457.96 465.78 L 459.56 468.13 L 461.42 470.11 L 463.55 471.77 L 465.91 473.08 L 468.40 474.01 L 471.05 474.56 L 473.75 474.71 L 476.46 474.43 L 479.21 473.71 L 599.86 431.25 L 601.44 430.41 L 602.63 429.22 L 603.43 427.75 L 603.78 426.12 L 603.66 424.45 L 603.01 422.78 L 506.62 255.42 L 505.37 253.75 L 503.88 252.49 L 502.11 251.58 L 500.19 251.08 L 498.23 251.04 L 496.19 251.45"
                  fill="url(#linearGradient-6)" fill-rule="evenodd" group-id="1,6" node-id="225" stroke="none"
                  target-height="223.67" target-width="238.21002" target-x="365.57" target-y="251.04"></path>
            <path d="M 438.46 288.43 L 393.08 303.09 L 391.93 303.78 L 391.24 304.83 L 391.05 306.07 L 391.43 307.34 L 419.62 356.68 L 420.46 357.81 L 421.46 358.66 L 422.65 359.27 L 423.95 359.60 L 425.26 359.62 L 426.64 359.33 L 470.90 344.23 L 472.01 343.54 L 472.69 342.50 L 472.88 341.29 L 472.52 340.03 L 445.43 291.17 L 444.60 290.04 L 443.61 289.18 L 442.43 288.55 L 441.15 288.21 L 439.83 288.16 L 438.46 288.43"
                  fill="#f2f7ff" fill-rule="evenodd" group-id="1,6" node-id="227" stroke="none" target-height="71.45999"
                  target-width="81.83002" target-x="391.05" target-y="288.16"></path>
            <path d="M 454.53 364.40 L 455.78 363.88 L 457.02 363.68 L 458.28 363.80 L 459.48 364.22 L 460.52 364.91 L 461.42 365.90 L 461.62 366.21 L 505.16 439.43 L 505.70 440.74 L 505.88 442.03 L 505.72 443.35 L 505.23 444.58 L 504.45 445.62 L 503.34 446.51 L 502.09 447.04 L 500.85 447.23 L 499.59 447.11 L 498.39 446.69 L 497.35 446.00 L 496.45 445.01 L 496.25 444.70 L 452.72 371.48 L 452.17 370.17 L 451.99 368.88 L 452.15 367.57 L 452.64 366.34 L 453.42 365.29 L 454.53 364.40 Z"
                  fill="url(#linearGradient-7)" fill-rule="nonzero" group-id="1,6" node-id="229" stroke="none"
                  target-height="83.55002" target-width="53.890015" target-x="451.99" target-y="363.68"></path>
            <path d="M 475.24 357.52 L 476.49 356.99 L 477.73 356.79 L 478.99 356.92 L 480.19 357.34 L 481.23 358.03 L 482.13 359.02 L 482.33 359.33 L 525.87 432.55 L 526.41 433.85 L 526.59 435.15 L 526.43 436.46 L 525.94 437.69 L 525.16 438.74 L 524.05 439.62 L 522.80 440.15 L 521.56 440.35 L 520.30 440.23 L 519.10 439.81 L 518.06 439.12 L 517.16 438.13 L 516.96 437.82 L 473.43 364.60 L 472.88 363.29 L 472.70 362.00 L 472.86 360.68 L 473.35 359.45 L 474.13 358.40 L 475.24 357.52 Z"
                  fill="url(#linearGradient-8)" fill-rule="nonzero" group-id="1,6" node-id="231" stroke="none"
                  target-height="83.56" target-width="53.890015" target-x="472.7" target-y="356.79"></path>
            <path d="M 466.80 261.25 L 574.35 440.24 L 559.80 445.38 L 450.98 266.25 Z" fill="url(#linearGradient-9)"
                  fill-rule="nonzero" group-id="1,6" node-id="233" stroke="none" target-height="184.13"
                  target-width="123.369965" target-x="450.98" target-y="261.25"></path>
        </g>
        <path d="M 523.00 451.95 L 523.00 584.00 L 684.00 503.86 L 684.00 373.00 Z" fill="url(#linearGradient-10)"
              fill-rule="evenodd" group-id="1" id="路径" node-id="73" stroke="none" target-height="211"
              target-width="161" target-x="523" target-y="373"></path>
        <path d="M 523.00 451.95 L 523.00 584.00 L 362.00 504.90 L 362.00 373.00 Z" fill="#d3e3ff" fill-rule="evenodd"
              group-id="1" id="路径" node-id="74" stroke="none" target-height="211" target-width="161" target-x="362"
              target-y="373"></path>
        <path d="M 523.00 451.37 L 684.00 373.00 L 684.00 392.61 L 523.00 471.00 Z" fill="#9fc3ff" fill-rule="evenodd"
              group-id="1" id="路径" node-id="75" stroke="none" target-height="98" target-width="161" target-x="523"
              target-y="373"></path>
        <path d="M 523.00 451.37 L 523.00 471.00 L 362.00 392.54 L 362.00 373.00 Z" fill="#e7f0ff" fill-rule="evenodd"
              group-id="1" id="路径" node-id="76" stroke="none" target-height="98" target-width="161" target-x="362"
              target-y="373"></path>
        <path d="M 629.61 453.50 L 630.75 453.10 L 631.85 453.00 L 632.95 453.21 L 633.96 453.69 L 634.81 454.42 L 635.51 455.43 L 635.98 457.05 L 635.85 458.66 L 635.18 460.11 L 634.00 461.26 L 633.64 461.48 L 590.39 484.50 L 589.25 484.90 L 588.16 485.00 L 587.05 484.79 L 586.04 484.31 L 585.19 483.58 L 584.49 482.57 L 584.02 480.95 L 584.15 479.34 L 584.82 477.89 L 586.00 476.74 L 586.36 476.52 L 629.61 453.50 Z"
              fill="#bad4ff" fill-rule="nonzero" group-id="1" id="路径" node-id="77" stroke="none" target-height="32"
              target-width="51.95996" target-x="584.02" target-y="453"></path>
        <path d="M 420.46 458.55 L 421.46 457.16 L 422.78 456.31 L 424.30 456.00 L 425.88 456.31 L 426.26 456.49 L 466.62 478.23 L 467.59 478.95 L 468.30 479.83 L 468.78 480.91 L 468.99 482.08 L 468.92 483.25 L 468.54 484.45 L 467.54 485.84 L 466.22 486.69 L 464.70 487.00 L 463.12 486.69 L 462.74 486.51 L 422.38 464.77 L 421.41 464.05 L 420.70 463.17 L 420.22 462.09 L 420.01 460.92 L 420.08 459.75 L 420.46 458.55 Z"
              fill="#f0f6ff" fill-rule="nonzero" group-id="1" id="路径" node-id="78" stroke="none" target-height="31"
              target-width="48.97998" target-x="420.01" target-y="456"></path>
    </g>
    <g node-id="250">
        <path d="M 229.77 537.00 L 240.15 537.00 L 240.15 591.67 L 239.95 593.12 L 239.45 594.36 L 238.63 595.44 L 237.58 596.28 L 236.37 596.80 L 234.96 597.00 L 234.96 597.00 L 233.55 596.80 L 232.35 596.28 L 231.29 595.44 L 230.48 594.36 L 229.97 593.12 L 229.77 591.67 L 229.77 537.00 Z"
              fill="#3f78d6" fill-rule="nonzero" group-id="2" id="路径" node-id="80" stroke="none" target-height="60"
              target-width="10.37999" target-x="229.77" target-y="537"></path>
        <path d="M 229.77 507.00 L 254.00 570.33 L 229.77 587.00 Z" fill="url(#linearGradient-11)" fill-rule="evenodd"
              group-id="2" id="路径" node-id="81" stroke="none" target-height="80" target-width="24.229996"
              target-x="229.77" target-y="507"></path>
        <g node-id="255">
            <path d="M 229.77 507.00 L 209.00 577.00 L 229.77 587.00 Z" fill="url(#linearGradient-12)"
                  fill-rule="evenodd" group-id="2,7" node-id="247" stroke="none" target-height="80"
                  target-width="20.770004" target-x="209" target-y="507"></path>
        </g>
    </g>
    <g node-id="251">
        <path d="M 807.00 495.00 L 815.00 495.00 L 815.00 537.82 L 814.68 539.46 L 813.83 540.78 L 812.56 541.67 L 811.00 542.00 L 811.00 542.00 L 809.44 541.67 L 808.17 540.78 L 807.32 539.46 L 807.00 537.82 L 807.00 495.00 Z"
              fill="#3f78d6" fill-rule="nonzero" group-id="3" id="路径" node-id="85" stroke="none" target-height="47"
              target-width="8" target-x="807" target-y="495"></path>
        <path d="M 807.00 472.00 L 826.00 521.08 L 807.00 534.00 Z" fill="url(#linearGradient-13)" fill-rule="evenodd"
              group-id="3" id="路径" node-id="86" stroke="none" target-height="62" target-width="19" target-x="807"
              target-y="472"></path>
        <g node-id="256">
            <path d="M 807.00 472.00 L 791.00 526.25 L 807.00 534.00 Z" fill="url(#linearGradient-14)"
                  fill-rule="evenodd" group-id="3,8" id="路径" node-id="88" stroke="none" target-height="62"
                  target-width="16" target-x="791" target-y="472"></path>
        </g>
    </g>
    <g node-id="252">
        <path d="M 281.00 463.00 L 289.00 463.00 L 289.00 504.00 L 288.68 505.57 L 287.83 506.83 L 286.57 507.68 L 285.00 508.00 L 285.00 508.00 L 283.43 507.68 L 282.17 506.83 L 281.32 505.57 L 281.00 504.00 L 281.00 463.00 Z"
              fill="#3f78d6" fill-rule="nonzero" group-id="4" id="路径" node-id="90" stroke="none" target-height="45"
              target-width="8" target-x="281" target-y="463"></path>
        <path d="M 281.00 440.00 L 299.00 487.50 L 281.00 500.00 Z" fill="url(#linearGradient-15)" fill-rule="evenodd"
              group-id="4" id="路径" node-id="91" stroke="none" target-height="60" target-width="18" target-x="281"
              target-y="440"></path>
        <g node-id="257">
            <path d="M 281.00 440.00 L 265.00 492.50 L 281.00 500.00 Z" fill="url(#linearGradient-16)"
                  fill-rule="evenodd" group-id="4,9" id="路径" node-id="93" stroke="none" target-height="60"
                  target-width="16" target-x="265" target-y="440"></path>
        </g>
    </g>
    <path d="M 739.00 308.50 C 739.00 324.79 725.79 338.00 709.50 338.00 C 693.21 338.00 680.00 324.79 680.00 308.50 C 680.00 292.21 693.21 279.00 709.50 279.00 C 725.79 279.00 739.00 292.21 739.00 308.50 Z"
          fill="url(#radialGradient-17)" fill-rule="nonzero" id="椭圆形" node-id="94" stroke="none" target-height="59"
          target-width="59" target-x="680" target-y="279"></path>
    <path d="M 351.00 531.50 C 351.00 542.27 342.27 551.00 331.50 551.00 C 320.73 551.00 312.00 542.27 312.00 531.50 C 312.00 520.73 320.73 512.00 331.50 512.00 C 342.27 512.00 351.00 520.73 351.00 531.50 Z"
          fill="url(#radialGradient-17)" fill-opacity="0.56253344" fill-rule="nonzero" group-id="5" id="椭圆形备份"
          node-id="95" stroke="none" target-height="39" target-width="39" target-x="312" target-y="512"></path>
</svg>